<svg xmlns="http://www.w3.org/2000/svg" width="36" height="36" fill="none"><path fill="#000" d="M24.577 13.024a2.615 2.615 0 0 0-.63-.97 2.615 2.615 0 0 0-.971-.632c-.298-.115-.744-.253-1.567-.29-.89-.041-1.156-.05-3.409-.05s-2.52.009-3.41.05c-.822.037-1.269.174-1.566.29a2.615 2.615 0 0 0-.97.631 2.615 2.615 0 0 0-.631.97c-.116.298-.253.745-.29 1.567-.041.89-.05 1.157-.05 3.41 0 2.252.009 2.52.05 3.409.037.822.174 1.27.29 1.566.153.394.335.675.63.97.296.296.577.479.971.632.298.115.744.253 1.567.29.889.04 1.156.049 3.409.049s2.52-.009 3.41-.049c.822-.038 1.269-.175 1.566-.29.394-.153.675-.336.97-.631.295-.296.478-.577.631-.97.116-.298.253-.745.29-1.567.041-.89.05-1.157.05-3.41 0-2.252-.009-2.52-.05-3.409-.037-.822-.174-1.269-.29-1.566ZM18 22.333a4.333 4.333 0 1 1 0-8.666 4.333 4.333 0 0 1 0 8.666Zm4.504-7.824a1.013 1.013 0 1 1 0-2.026 1.013 1.013 0 0 1 0 2.026ZM0 0v36h36V0H0Zm26.387 21.479c-.041.898-.184 1.51-.392 2.048a4.135 4.135 0 0 1-.973 1.494c-.47.47-.94.758-1.495.973-.537.209-1.15.351-2.048.392-.9.042-1.187.052-3.479.052s-2.58-.01-3.479-.051c-.898-.041-1.51-.184-2.048-.392a4.135 4.135 0 0 1-1.494-.973 4.13 4.13 0 0 1-.973-1.495c-.209-.537-.351-1.15-.392-2.048-.042-.9-.052-1.187-.052-3.479s.01-2.58.051-3.48c.041-.897.184-1.51.392-2.047a4.135 4.135 0 0 1 .973-1.495c.47-.469.94-.757 1.495-.973.536-.209 1.15-.35 2.048-.392.9-.04 1.187-.05 3.479-.05s2.58.01 3.479.05c.898.041 1.51.184 2.048.392a4.135 4.135 0 0 1 1.494.973c.47.47.758.94.973 1.495.209.536.351 1.15.392 2.048.042.9.052 1.187.052 3.479s-.01 2.58-.051 3.479ZM18 15.188a2.813 2.813 0 1 0 0 5.625 2.813 2.813 0 0 0 0-5.625Z"/></svg>