<svg xmlns="http://www.w3.org/2000/svg" width="36" height="36" fill="none"><path fill="#000" fill-rule="evenodd" d="M36 0H0v36h36V0ZM25.69 14.852c-.873-.902-1.93-1.352-3.169-1.352h-3.633v1.732h3.633c.76 0 1.409.282 1.944.845.563.536.845 1.183.845 1.944 0 .76-.282 1.423-.845 1.986a2.646 2.646 0 0 1-1.944.803h-3.633v1.732h3.633c1.24 0 2.295-.436 3.169-1.31.873-.9 1.31-1.971 1.31-3.21 0-1.24-.436-2.297-1.31-3.17Zm-4.098 2.282h-7.184v1.774h7.184v-1.774Zm-10.902.887c0-.76.268-1.408.803-1.944.564-.563 1.225-.845 1.986-.845h3.633V13.5H13.48c-1.24 0-2.295.45-3.169 1.352-.873.873-1.31 1.93-1.31 3.17 0 1.239.437 2.309 1.31 3.21.873.874 1.93 1.31 3.169 1.31h3.633V20.81H13.48c-.76 0-1.423-.267-1.986-.803-.536-.564-.803-1.225-.803-1.986Z" clip-rule="evenodd"/></svg>