<svg xmlns="http://www.w3.org/2000/svg" width="36" height="36" fill="none"><path fill="#000" d="M0 0v36h36V0H0Zm18 27c-.9 0-1.744-.113-2.531-.394.337-.562.731-1.237.9-1.912.112-.394.619-2.475.619-2.475.337.618 1.237 1.125 2.193 1.125 2.869 0 4.838-2.644 4.838-6.188 0-2.643-2.25-5.175-5.681-5.175-4.276 0-6.413 3.094-6.413 5.625 0 1.575.563 2.925 1.856 3.431.225.057.394 0 .45-.224.056-.17.113-.563.169-.732.056-.225.056-.281-.113-.506-.337-.45-.618-.956-.618-1.744 0-2.25 1.687-4.331 4.444-4.331 2.418 0 3.768 1.463 3.768 3.431 0 2.588-1.125 4.781-2.869 4.781-.956 0-1.63-.787-1.406-1.743.281-1.125.788-2.363.788-3.207 0-.73-.394-1.35-1.238-1.35-.956 0-1.743 1.013-1.743 2.307 0 .843.28 1.406.28 1.406s-1.012 4.163-1.18 4.894c-.17.675-.17 1.462-.17 2.081C11.194 24.862 9 21.712 9 18c0-4.95 4.05-9 9-9s9 4.05 9 9-4.05 9-9 9Z"/></svg>